<mxfile modified="2023-04-01T08:01:08.480Z" host="app.diagrams.net" agent="Mozilla/5.0 (Macintosh; Intel Mac OS X 10_15_7) AppleWebKit/537.36 (KHTML, like Gecko) Chrome/111.0.0.0 Safari/537.36" etag="y3QOwoMRJIHSQH-w5bpc" version="21.1.1" type="github">
  <diagram id="Ht1M8jgEwFfnCIfOTk4-" name="Page-1">
    <mxGraphModel dx="1562" dy="867" grid="1" gridSize="10" guides="1" tooltips="1" connect="1" arrows="1" fold="1" page="1" pageScale="1" pageWidth="1169" pageHeight="827" math="0" shadow="0">
      <root>
        <mxCell id="0" />
        <mxCell id="1" parent="0" />
        <mxCell id="m_8UG7gQofnNzncV905W-1" value="" style="rounded=0;whiteSpace=wrap;html=1;" vertex="1" parent="1">
          <mxGeometry x="530" y="60" width="440" height="210" as="geometry" />
        </mxCell>
        <mxCell id="m_8UG7gQofnNzncV905W-2" value="" style="rounded=0;whiteSpace=wrap;html=1;" vertex="1" parent="1">
          <mxGeometry x="130" y="390" width="340" height="470" as="geometry" />
        </mxCell>
        <mxCell id="m_8UG7gQofnNzncV905W-3" value="" style="fontColor=#0066CC;verticalAlign=top;verticalLabelPosition=bottom;labelPosition=center;align=center;html=1;outlineConnect=0;fillColor=#CCCCCC;strokeColor=#6881B3;gradientColor=none;gradientDirection=north;strokeWidth=2;shape=mxgraph.networks.switch;" vertex="1" parent="1">
          <mxGeometry x="620" y="160" width="100" height="30" as="geometry" />
        </mxCell>
        <mxCell id="m_8UG7gQofnNzncV905W-4" value="光猫" style="whiteSpace=wrap;html=1;" vertex="1" parent="1">
          <mxGeometry x="580" y="120" width="50" height="30" as="geometry" />
        </mxCell>
        <mxCell id="m_8UG7gQofnNzncV905W-5" value="" style="fontColor=#0066CC;verticalAlign=top;verticalLabelPosition=bottom;labelPosition=center;align=center;html=1;outlineConnect=0;fillColor=#CCCCCC;strokeColor=#6881B3;gradientColor=none;gradientDirection=north;strokeWidth=2;shape=mxgraph.networks.wireless_modem;" vertex="1" parent="1">
          <mxGeometry x="250" y="500" width="100" height="85" as="geometry" />
        </mxCell>
        <mxCell id="m_8UG7gQofnNzncV905W-6" value="路由器" style="whiteSpace=wrap;html=1;" vertex="1" parent="1">
          <mxGeometry x="190" y="450" width="60" height="30" as="geometry" />
        </mxCell>
        <mxCell id="m_8UG7gQofnNzncV905W-7" value="中间的房间" style="whiteSpace=wrap;html=1;" vertex="1" parent="1">
          <mxGeometry x="290" y="405" width="80" height="35" as="geometry" />
        </mxCell>
        <mxCell id="m_8UG7gQofnNzncV905W-8" value="电信箱子" style="rounded=0;whiteSpace=wrap;html=1;" vertex="1" parent="1">
          <mxGeometry x="730" y="70" width="60" height="40" as="geometry" />
        </mxCell>
        <mxCell id="m_8UG7gQofnNzncV905W-9" value="" style="rounded=0;whiteSpace=wrap;html=1;" vertex="1" parent="1">
          <mxGeometry x="590" y="450" width="120" height="60" as="geometry" />
        </mxCell>
        <mxCell id="m_8UG7gQofnNzncV905W-10" value="" style="rounded=0;whiteSpace=wrap;html=1;" vertex="1" parent="1">
          <mxGeometry x="500" y="599" width="120" height="161" as="geometry" />
        </mxCell>
        <mxCell id="m_8UG7gQofnNzncV905W-11" value="" style="rounded=0;whiteSpace=wrap;html=1;" vertex="1" parent="1">
          <mxGeometry x="700" y="650" width="120" height="190" as="geometry" />
        </mxCell>
        <mxCell id="m_8UG7gQofnNzncV905W-12" value="" style="rounded=0;whiteSpace=wrap;html=1;" vertex="1" parent="1">
          <mxGeometry x="850" y="650" width="120" height="60" as="geometry" />
        </mxCell>
        <mxCell id="m_8UG7gQofnNzncV905W-13" value="" style="endArrow=classic;html=1;rounded=0;exitX=0.45;exitY=-0.067;exitDx=0;exitDy=0;exitPerimeter=0;" edge="1" parent="1" source="m_8UG7gQofnNzncV905W-9" target="m_8UG7gQofnNzncV905W-3">
          <mxGeometry width="50" height="50" relative="1" as="geometry">
            <mxPoint x="620" y="470" as="sourcePoint" />
            <mxPoint x="670" y="420" as="targetPoint" />
          </mxGeometry>
        </mxCell>
        <mxCell id="m_8UG7gQofnNzncV905W-14" value="网线" style="edgeLabel;html=1;align=center;verticalAlign=middle;resizable=0;points=[];" vertex="1" connectable="0" parent="m_8UG7gQofnNzncV905W-13">
          <mxGeometry x="-0.6023" y="1" relative="1" as="geometry">
            <mxPoint as="offset" />
          </mxGeometry>
        </mxCell>
        <mxCell id="m_8UG7gQofnNzncV905W-15" value="" style="endArrow=classic;html=1;rounded=0;" edge="1" parent="1" source="m_8UG7gQofnNzncV905W-10" target="m_8UG7gQofnNzncV905W-3">
          <mxGeometry width="50" height="50" relative="1" as="geometry">
            <mxPoint x="654" y="456" as="sourcePoint" />
            <mxPoint x="679" y="200" as="targetPoint" />
          </mxGeometry>
        </mxCell>
        <mxCell id="m_8UG7gQofnNzncV905W-16" value="网线" style="edgeLabel;html=1;align=center;verticalAlign=middle;resizable=0;points=[];" vertex="1" connectable="0" parent="m_8UG7gQofnNzncV905W-15">
          <mxGeometry x="0.1189" relative="1" as="geometry">
            <mxPoint as="offset" />
          </mxGeometry>
        </mxCell>
        <mxCell id="m_8UG7gQofnNzncV905W-17" value="" style="endArrow=classic;html=1;rounded=0;" edge="1" parent="1" source="m_8UG7gQofnNzncV905W-11" target="m_8UG7gQofnNzncV905W-3">
          <mxGeometry width="50" height="50" relative="1" as="geometry">
            <mxPoint x="587" y="595" as="sourcePoint" />
            <mxPoint x="677" y="200" as="targetPoint" />
          </mxGeometry>
        </mxCell>
        <mxCell id="m_8UG7gQofnNzncV905W-18" value="网线" style="edgeLabel;html=1;align=center;verticalAlign=middle;resizable=0;points=[];" vertex="1" connectable="0" parent="m_8UG7gQofnNzncV905W-17">
          <mxGeometry x="0.03" y="-1" relative="1" as="geometry">
            <mxPoint as="offset" />
          </mxGeometry>
        </mxCell>
        <mxCell id="m_8UG7gQofnNzncV905W-19" value="" style="endArrow=classic;html=1;rounded=0;" edge="1" parent="1" source="m_8UG7gQofnNzncV905W-12" target="m_8UG7gQofnNzncV905W-3">
          <mxGeometry width="50" height="50" relative="1" as="geometry">
            <mxPoint x="765" y="660" as="sourcePoint" />
            <mxPoint x="683" y="200" as="targetPoint" />
          </mxGeometry>
        </mxCell>
        <mxCell id="m_8UG7gQofnNzncV905W-20" value="网线" style="edgeLabel;html=1;align=center;verticalAlign=middle;resizable=0;points=[];" vertex="1" connectable="0" parent="m_8UG7gQofnNzncV905W-19">
          <mxGeometry x="0.0078" relative="1" as="geometry">
            <mxPoint x="1" as="offset" />
          </mxGeometry>
        </mxCell>
        <mxCell id="m_8UG7gQofnNzncV905W-21" value="" style="endArrow=classic;html=1;rounded=0;" edge="1" parent="1" source="m_8UG7gQofnNzncV905W-5" target="m_8UG7gQofnNzncV905W-3">
          <mxGeometry width="50" height="50" relative="1" as="geometry">
            <mxPoint x="906" y="660" as="sourcePoint" />
            <mxPoint x="687" y="200" as="targetPoint" />
          </mxGeometry>
        </mxCell>
        <mxCell id="m_8UG7gQofnNzncV905W-22" value="网线" style="edgeLabel;html=1;align=center;verticalAlign=middle;resizable=0;points=[];" vertex="1" connectable="0" parent="m_8UG7gQofnNzncV905W-21">
          <mxGeometry x="-0.0542" y="3" relative="1" as="geometry">
            <mxPoint as="offset" />
          </mxGeometry>
        </mxCell>
        <mxCell id="m_8UG7gQofnNzncV905W-23" value="房间1" style="whiteSpace=wrap;html=1;" vertex="1" parent="1">
          <mxGeometry x="620" y="462.5" width="50" height="17.5" as="geometry" />
        </mxCell>
        <mxCell id="m_8UG7gQofnNzncV905W-24" value="房间2" style="whiteSpace=wrap;html=1;" vertex="1" parent="1">
          <mxGeometry x="560" y="606.25" width="50" height="17.5" as="geometry" />
        </mxCell>
        <mxCell id="m_8UG7gQofnNzncV905W-25" value="房间3" style="whiteSpace=wrap;html=1;" vertex="1" parent="1">
          <mxGeometry x="740" y="671.25" width="50" height="17.5" as="geometry" />
        </mxCell>
        <mxCell id="m_8UG7gQofnNzncV905W-26" value="房间4" style="whiteSpace=wrap;html=1;" vertex="1" parent="1">
          <mxGeometry x="885" y="671.25" width="50" height="17.5" as="geometry" />
        </mxCell>
        <mxCell id="m_8UG7gQofnNzncV905W-27" value="" style="fontColor=#0066CC;verticalAlign=top;verticalLabelPosition=bottom;labelPosition=center;align=center;html=1;outlineConnect=0;fillColor=#CCCCCC;strokeColor=#6881B3;gradientColor=none;gradientDirection=north;strokeWidth=2;shape=mxgraph.networks.scanner;" vertex="1" parent="1">
          <mxGeometry x="150" y="730" width="100" height="75" as="geometry" />
        </mxCell>
        <mxCell id="m_8UG7gQofnNzncV905W-28" value="" style="fontColor=#0066CC;verticalAlign=top;verticalLabelPosition=bottom;labelPosition=center;align=center;html=1;outlineConnect=0;fillColor=#CCCCCC;strokeColor=#6881B3;gradientColor=none;gradientDirection=north;strokeWidth=2;shape=mxgraph.networks.mobile;" vertex="1" parent="1">
          <mxGeometry x="530" y="679" width="15" height="31" as="geometry" />
        </mxCell>
        <mxCell id="m_8UG7gQofnNzncV905W-29" value="" style="fontColor=#0066CC;verticalAlign=top;verticalLabelPosition=bottom;labelPosition=center;align=center;html=1;outlineConnect=0;fillColor=#CCCCCC;strokeColor=#6881B3;gradientColor=none;gradientDirection=north;strokeWidth=2;shape=mxgraph.networks.mobile;" vertex="1" parent="1">
          <mxGeometry x="740" y="740" width="15" height="31" as="geometry" />
        </mxCell>
        <mxCell id="m_8UG7gQofnNzncV905W-30" value="" style="endArrow=classic;html=1;rounded=0;" edge="1" parent="1" source="m_8UG7gQofnNzncV905W-27" target="m_8UG7gQofnNzncV905W-5">
          <mxGeometry width="50" height="50" relative="1" as="geometry">
            <mxPoint x="353" y="510" as="sourcePoint" />
            <mxPoint x="665" y="200" as="targetPoint" />
          </mxGeometry>
        </mxCell>
        <mxCell id="m_8UG7gQofnNzncV905W-31" value="wifi" style="edgeLabel;html=1;align=center;verticalAlign=middle;resizable=0;points=[];" vertex="1" connectable="0" parent="m_8UG7gQofnNzncV905W-30">
          <mxGeometry x="-0.0542" y="3" relative="1" as="geometry">
            <mxPoint as="offset" />
          </mxGeometry>
        </mxCell>
        <mxCell id="m_8UG7gQofnNzncV905W-32" value="" style="endArrow=classic;html=1;rounded=0;exitX=1;exitY=0.5;exitDx=0;exitDy=0;exitPerimeter=0;" edge="1" parent="1" source="m_8UG7gQofnNzncV905W-28" target="m_8UG7gQofnNzncV905W-5">
          <mxGeometry width="50" height="50" relative="1" as="geometry">
            <mxPoint x="227" y="740" as="sourcePoint" />
            <mxPoint x="291" y="595" as="targetPoint" />
          </mxGeometry>
        </mxCell>
        <mxCell id="m_8UG7gQofnNzncV905W-33" value="wifi" style="edgeLabel;html=1;align=center;verticalAlign=middle;resizable=0;points=[];" vertex="1" connectable="0" parent="m_8UG7gQofnNzncV905W-32">
          <mxGeometry x="-0.0542" y="3" relative="1" as="geometry">
            <mxPoint as="offset" />
          </mxGeometry>
        </mxCell>
        <mxCell id="m_8UG7gQofnNzncV905W-34" value="" style="endArrow=classic;html=1;rounded=0;exitX=1;exitY=0.5;exitDx=0;exitDy=0;exitPerimeter=0;" edge="1" parent="1" source="m_8UG7gQofnNzncV905W-29" target="m_8UG7gQofnNzncV905W-5">
          <mxGeometry width="50" height="50" relative="1" as="geometry">
            <mxPoint x="555" y="705" as="sourcePoint" />
            <mxPoint x="360" y="584" as="targetPoint" />
          </mxGeometry>
        </mxCell>
        <mxCell id="m_8UG7gQofnNzncV905W-35" value="wifi" style="edgeLabel;html=1;align=center;verticalAlign=middle;resizable=0;points=[];" vertex="1" connectable="0" parent="m_8UG7gQofnNzncV905W-34">
          <mxGeometry x="-0.0542" y="3" relative="1" as="geometry">
            <mxPoint as="offset" />
          </mxGeometry>
        </mxCell>
        <mxCell id="m_8UG7gQofnNzncV905W-36" value="" style="fontColor=#0066CC;verticalAlign=top;verticalLabelPosition=bottom;labelPosition=center;align=center;html=1;outlineConnect=0;fillColor=#CCCCCC;strokeColor=#6881B3;gradientColor=none;gradientDirection=north;strokeWidth=2;shape=mxgraph.networks.modem;" vertex="1" parent="1">
          <mxGeometry x="830" y="160" width="100" height="30" as="geometry" />
        </mxCell>
        <mxCell id="m_8UG7gQofnNzncV905W-37" value="r2s" style="whiteSpace=wrap;html=1;" vertex="1" parent="1">
          <mxGeometry x="835" y="120" width="50" height="30" as="geometry" />
        </mxCell>
        <mxCell id="m_8UG7gQofnNzncV905W-38" value="" style="endArrow=classic;startArrow=classic;html=1;rounded=0;" edge="1" parent="1" source="m_8UG7gQofnNzncV905W-3" target="m_8UG7gQofnNzncV905W-36">
          <mxGeometry width="50" height="50" relative="1" as="geometry">
            <mxPoint x="770" y="220" as="sourcePoint" />
            <mxPoint x="820" y="170" as="targetPoint" />
          </mxGeometry>
        </mxCell>
      </root>
    </mxGraphModel>
  </diagram>
</mxfile>
